<svg width="512" height="512" viewBox="0 0 512 512" fill="none" xmlns="http://www.w3.org/2000/svg">
  <rect width="512" height="512" rx="120" fill="#FAFBFC"/>
  <rect x="52" y="52" width="408" height="408" rx="104" fill="#D80621"/>
  <path d="M256 110L277 191C318 168 344 169 357 186C344 204 318 218 330 247L401 230C394 255 375 274 386 295C405 283 428 278 436 295C423 314 399 328 410 352H455C441 377 416 396 426 421C407 414 382 408 375 433L418 464C397 485 367 494 367 521C346 507 327 493 311 511L324 579C297 566 274 544 254 558L223 682L192 558C172 544 149 566 122 579L135 511C119 493 100 507 79 521C79 494 49 485 28 464L71 433C64 408 39 414 20 421C30 396 5 377 -9 352H36C47 328 23 314 10 295C18 278 41 283 60 295C71 274 52 255 45 230L116 247C128 218 102 204 89 186C102 169 128 168 169 191L190 110H256Z" fill="#FAFBFC" transform="translate(0 -94) scale(1 1)"/>
  <path d="M178 320C178 276.922 212.922 242 256 242C299.078 242 334 276.922 334 320C334 363.078 299.078 398 256 398C212.922 398 178 363.078 178 320Z" fill="#1A472A"/>
  <path d="M204 320C204 291.281 227.281 268 256 268C284.719 268 308 291.281 308 320C308 348.719 284.719 372 256 372C227.281 372 204 348.719 204 320Z" fill="#FAFBFC"/>
  <circle cx="256" cy="320" r="18" fill="#D80621"/>
</svg>
